<mxfile host="app.diagrams.net" modified="2023-07-21T05:14:09.156Z" agent="Mozilla/5.0 (Windows NT 10.0; Win64; x64) AppleWebKit/537.36 (KHTML, like Gecko) Chrome/115.0.0.0 Safari/537.36" etag="EslwBdProQEaI9gvtLPV" version="21.6.3" type="google">
  <diagram name="Page-1" id="Geuzx7l0dKcwe-0M2b9J">
    <mxGraphModel grid="1" page="1" gridSize="10" guides="1" tooltips="1" connect="1" arrows="1" fold="1" pageScale="1" pageWidth="850" pageHeight="1100" math="0" shadow="0">
      <root>
        <mxCell id="0" />
        <mxCell id="1" parent="0" />
        <mxCell id="Ab2P-R2S4FdKcfFSWCBW-1" value="Bank Management System(UseCaseDiagram)" style="text;strokeColor=none;align=center;fillColor=none;html=1;verticalAlign=middle;whiteSpace=wrap;rounded=0;" vertex="1" parent="1">
          <mxGeometry x="-40" y="40" width="350" height="30" as="geometry" />
        </mxCell>
        <mxCell id="Ab2P-R2S4FdKcfFSWCBW-2" value="" style="rounded=1;whiteSpace=wrap;html=1;" vertex="1" parent="1">
          <mxGeometry x="240" y="170" width="270" height="590" as="geometry" />
        </mxCell>
        <mxCell id="Ab2P-R2S4FdKcfFSWCBW-3" value="Banking System" style="text;strokeColor=none;align=center;fillColor=none;html=1;verticalAlign=middle;whiteSpace=wrap;rounded=0;" vertex="1" parent="1">
          <mxGeometry x="325" y="180" width="100" height="10" as="geometry" />
        </mxCell>
        <mxCell id="Ab2P-R2S4FdKcfFSWCBW-4" value="&amp;lt;&amp;lt;Saving Account&amp;gt;&amp;gt;" style="text;strokeColor=none;align=center;fillColor=none;html=1;verticalAlign=middle;whiteSpace=wrap;rounded=0;" vertex="1" parent="1">
          <mxGeometry x="304" y="184" width="140" height="30" as="geometry" />
        </mxCell>
        <mxCell id="Ab2P-R2S4FdKcfFSWCBW-16" style="edgeStyle=orthogonalEdgeStyle;rounded=0;orthogonalLoop=1;jettySize=auto;html=1;exitX=0.5;exitY=0.5;exitDx=0;exitDy=0;exitPerimeter=0;entryX=0;entryY=0.5;entryDx=0;entryDy=0;" edge="1" parent="1">
          <mxGeometry relative="1" as="geometry">
            <mxPoint x="135" y="384.0000000000001" as="sourcePoint" />
            <mxPoint x="304" y="249.0000000000001" as="targetPoint" />
            <Array as="points">
              <mxPoint x="190" y="384" />
              <mxPoint x="190" y="250" />
              <mxPoint x="304" y="250" />
            </Array>
          </mxGeometry>
        </mxCell>
        <mxCell id="Ab2P-R2S4FdKcfFSWCBW-17" style="edgeStyle=orthogonalEdgeStyle;rounded=0;orthogonalLoop=1;jettySize=auto;html=1;exitX=0.5;exitY=0.5;exitDx=0;exitDy=0;exitPerimeter=0;" edge="1" parent="1">
          <mxGeometry relative="1" as="geometry">
            <mxPoint x="135" y="390.0000000000001" as="sourcePoint" />
            <mxPoint x="304" y="344.9999999999999" as="targetPoint" />
            <Array as="points">
              <mxPoint x="270" y="391" />
              <mxPoint x="270" y="345" />
            </Array>
          </mxGeometry>
        </mxCell>
        <mxCell id="Ab2P-R2S4FdKcfFSWCBW-19" style="edgeStyle=orthogonalEdgeStyle;rounded=0;orthogonalLoop=1;jettySize=auto;html=1;exitX=0.5;exitY=0.5;exitDx=0;exitDy=0;exitPerimeter=0;entryX=0;entryY=0.5;entryDx=0;entryDy=0;" edge="1" parent="1">
          <mxGeometry relative="1" as="geometry">
            <mxPoint x="135" y="395.0000000000001" as="sourcePoint" />
            <mxPoint x="304" y="438" as="targetPoint" />
            <Array as="points">
              <mxPoint x="270" y="395" />
              <mxPoint x="270" y="438" />
            </Array>
          </mxGeometry>
        </mxCell>
        <mxCell id="Ab2P-R2S4FdKcfFSWCBW-21" style="edgeStyle=orthogonalEdgeStyle;rounded=0;orthogonalLoop=1;jettySize=auto;html=1;exitX=0.5;exitY=0.5;exitDx=0;exitDy=0;exitPerimeter=0;entryX=0;entryY=0.5;entryDx=0;entryDy=0;" edge="1" parent="1" source="Ab2P-R2S4FdKcfFSWCBW-5" target="Ab2P-R2S4FdKcfFSWCBW-12">
          <mxGeometry relative="1" as="geometry">
            <Array as="points">
              <mxPoint x="135" y="400" />
              <mxPoint x="227" y="400" />
              <mxPoint x="227" y="525" />
            </Array>
          </mxGeometry>
        </mxCell>
        <mxCell id="Ab2P-R2S4FdKcfFSWCBW-22" style="edgeStyle=orthogonalEdgeStyle;rounded=0;orthogonalLoop=1;jettySize=auto;html=1;exitX=0.5;exitY=0.5;exitDx=0;exitDy=0;exitPerimeter=0;" edge="1" parent="1">
          <mxGeometry relative="1" as="geometry">
            <mxPoint x="139" y="406.0000000000001" as="sourcePoint" />
            <mxPoint x="291" y="614" as="targetPoint" />
            <Array as="points">
              <mxPoint x="200" y="406" />
              <mxPoint x="200" y="609" />
              <mxPoint x="201" y="614" />
            </Array>
          </mxGeometry>
        </mxCell>
        <mxCell id="Ab2P-R2S4FdKcfFSWCBW-23" style="edgeStyle=orthogonalEdgeStyle;rounded=0;orthogonalLoop=1;jettySize=auto;html=1;exitX=0.5;exitY=0.5;exitDx=0;exitDy=0;exitPerimeter=0;" edge="1" parent="1">
          <mxGeometry relative="1" as="geometry">
            <mxPoint x="144" y="412" as="sourcePoint" />
            <mxPoint x="270" y="710" as="targetPoint" />
            <Array as="points">
              <mxPoint x="179" y="412" />
              <mxPoint x="179" y="710" />
            </Array>
          </mxGeometry>
        </mxCell>
        <mxCell id="Ab2P-R2S4FdKcfFSWCBW-5" value="" style="shape=umlActor;verticalLabelPosition=bottom;verticalAlign=top;html=1;outlineConnect=0;" vertex="1" parent="1">
          <mxGeometry x="120" y="360" width="30" height="60" as="geometry" />
        </mxCell>
        <mxCell id="Ab2P-R2S4FdKcfFSWCBW-8" value="Customer" style="text;html=1;align=center;verticalAlign=middle;resizable=0;points=[];autosize=1;strokeColor=none;fillColor=none;" vertex="1" parent="1">
          <mxGeometry x="95" y="418" width="80" height="30" as="geometry" />
        </mxCell>
        <mxCell id="Ab2P-R2S4FdKcfFSWCBW-9" value="Create Saving Account" style="ellipse;whiteSpace=wrap;html=1;" vertex="1" parent="1">
          <mxGeometry x="304" y="220" width="140" height="70" as="geometry" />
        </mxCell>
        <mxCell id="Ab2P-R2S4FdKcfFSWCBW-10" value="Deposit Money" style="ellipse;whiteSpace=wrap;html=1;" vertex="1" parent="1">
          <mxGeometry x="304" y="310" width="140" height="70" as="geometry" />
        </mxCell>
        <mxCell id="Ab2P-R2S4FdKcfFSWCBW-11" value="Withdraw Money" style="ellipse;whiteSpace=wrap;html=1;" vertex="1" parent="1">
          <mxGeometry x="304" y="398" width="140" height="70" as="geometry" />
        </mxCell>
        <mxCell id="Ab2P-R2S4FdKcfFSWCBW-12" value="Check Balance" style="ellipse;whiteSpace=wrap;html=1;" vertex="1" parent="1">
          <mxGeometry x="304" y="490" width="140" height="70" as="geometry" />
        </mxCell>
        <mxCell id="Ab2P-R2S4FdKcfFSWCBW-13" value="Transfer Money" style="ellipse;whiteSpace=wrap;html=1;" vertex="1" parent="1">
          <mxGeometry x="304" y="580" width="140" height="70" as="geometry" />
        </mxCell>
        <mxCell id="Ab2P-R2S4FdKcfFSWCBW-15" value="Transaction Histroy" style="ellipse;whiteSpace=wrap;html=1;" vertex="1" parent="1">
          <mxGeometry x="304" y="670" width="140" height="70" as="geometry" />
        </mxCell>
        <mxCell id="Ab2P-R2S4FdKcfFSWCBW-25" value="Bank System" style="shape=umlActor;verticalLabelPosition=bottom;verticalAlign=top;html=1;" vertex="1" parent="1">
          <mxGeometry x="680" y="358" width="30" height="60" as="geometry" />
        </mxCell>
        <mxCell id="Ab2P-R2S4FdKcfFSWCBW-28" value="Update Balance" style="html=1;verticalAlign=bottom;endArrow=block;edgeStyle=elbowEdgeStyle;elbow=vertical;curved=0;rounded=0;exitX=0.5;exitY=0;exitDx=0;exitDy=0;exitPerimeter=0;" edge="1" parent="1" source="Ab2P-R2S4FdKcfFSWCBW-25">
          <mxGeometry width="80" relative="1" as="geometry">
            <mxPoint x="660" y="390" as="sourcePoint" />
            <mxPoint x="443.99605972938144" y="344.67" as="targetPoint" />
            <Array as="points">
              <mxPoint x="580" y="345" />
            </Array>
          </mxGeometry>
        </mxCell>
        <mxCell id="Ab2P-R2S4FdKcfFSWCBW-29" value="Update Balance" style="html=1;verticalAlign=bottom;endArrow=block;edgeStyle=elbowEdgeStyle;elbow=horizontal;curved=0;rounded=0;entryX=1;entryY=0.5;entryDx=0;entryDy=0;exitX=0.5;exitY=0.5;exitDx=0;exitDy=0;exitPerimeter=0;" edge="1" parent="1">
          <mxGeometry width="80" relative="1" as="geometry">
            <mxPoint x="696" y="388" as="sourcePoint" />
            <mxPoint x="445" y="433" as="targetPoint" />
            <Array as="points">
              <mxPoint x="531" y="390" />
            </Array>
          </mxGeometry>
        </mxCell>
        <mxCell id="Ab2P-R2S4FdKcfFSWCBW-30" value="Update Balance" style="html=1;verticalAlign=bottom;endArrow=block;edgeStyle=elbowEdgeStyle;elbow=vertical;curved=0;rounded=0;exitX=0.478;exitY=0.683;exitDx=0;exitDy=0;exitPerimeter=0;" edge="1" parent="1" source="Ab2P-R2S4FdKcfFSWCBW-25">
          <mxGeometry width="80" relative="1" as="geometry">
            <mxPoint x="640" y="410" as="sourcePoint" />
            <mxPoint x="444" y="615" as="targetPoint" />
            <Array as="points">
              <mxPoint x="450" y="560" />
              <mxPoint x="590" y="550" />
            </Array>
          </mxGeometry>
        </mxCell>
        <mxCell id="Ab2P-R2S4FdKcfFSWCBW-35" value="Approve or Reject" style="html=1;verticalAlign=bottom;endArrow=block;edgeStyle=elbowEdgeStyle;elbow=vertical;curved=0;rounded=0;exitX=0.744;exitY=0.306;exitDx=0;exitDy=0;exitPerimeter=0;" edge="1" parent="1">
          <mxGeometry width="80" relative="1" as="geometry">
            <mxPoint x="705.3200000000002" y="376.36" as="sourcePoint" />
            <mxPoint x="446.28203230275494" y="250" as="targetPoint" />
            <Array as="points">
              <mxPoint x="668" y="250" />
            </Array>
          </mxGeometry>
        </mxCell>
        <mxCell id="Ab2P-R2S4FdKcfFSWCBW-130" value="" style="rounded=1;whiteSpace=wrap;html=1;" vertex="1" parent="1">
          <mxGeometry x="1110" y="160" width="270" height="590" as="geometry" />
        </mxCell>
        <mxCell id="Ab2P-R2S4FdKcfFSWCBW-131" value="Banking System" style="text;strokeColor=none;align=center;fillColor=none;html=1;verticalAlign=middle;whiteSpace=wrap;rounded=0;" vertex="1" parent="1">
          <mxGeometry x="1195" y="170" width="100" height="10" as="geometry" />
        </mxCell>
        <mxCell id="Ab2P-R2S4FdKcfFSWCBW-132" value="&amp;lt;&amp;lt;Current Account&amp;gt;&amp;gt;" style="text;strokeColor=none;align=center;fillColor=none;html=1;verticalAlign=middle;whiteSpace=wrap;rounded=0;" vertex="1" parent="1">
          <mxGeometry x="1174" y="174" width="140" height="30" as="geometry" />
        </mxCell>
        <mxCell id="Ab2P-R2S4FdKcfFSWCBW-133" style="edgeStyle=orthogonalEdgeStyle;rounded=0;orthogonalLoop=1;jettySize=auto;html=1;exitX=0.5;exitY=0.5;exitDx=0;exitDy=0;exitPerimeter=0;entryX=0;entryY=0.5;entryDx=0;entryDy=0;" edge="1" parent="1">
          <mxGeometry relative="1" as="geometry">
            <mxPoint x="1005" y="374.0000000000001" as="sourcePoint" />
            <mxPoint x="1174" y="239.0000000000001" as="targetPoint" />
            <Array as="points">
              <mxPoint x="1060" y="374" />
              <mxPoint x="1060" y="240" />
              <mxPoint x="1174" y="240" />
            </Array>
          </mxGeometry>
        </mxCell>
        <mxCell id="Ab2P-R2S4FdKcfFSWCBW-134" style="edgeStyle=orthogonalEdgeStyle;rounded=0;orthogonalLoop=1;jettySize=auto;html=1;exitX=0.5;exitY=0.5;exitDx=0;exitDy=0;exitPerimeter=0;" edge="1" parent="1">
          <mxGeometry relative="1" as="geometry">
            <mxPoint x="1005" y="380.0000000000001" as="sourcePoint" />
            <mxPoint x="1174" y="334.9999999999999" as="targetPoint" />
            <Array as="points">
              <mxPoint x="1140" y="381" />
              <mxPoint x="1140" y="335" />
            </Array>
          </mxGeometry>
        </mxCell>
        <mxCell id="Ab2P-R2S4FdKcfFSWCBW-135" style="edgeStyle=orthogonalEdgeStyle;rounded=0;orthogonalLoop=1;jettySize=auto;html=1;exitX=0.5;exitY=0.5;exitDx=0;exitDy=0;exitPerimeter=0;entryX=0;entryY=0.5;entryDx=0;entryDy=0;" edge="1" parent="1">
          <mxGeometry relative="1" as="geometry">
            <mxPoint x="1005" y="385.0000000000001" as="sourcePoint" />
            <mxPoint x="1174" y="428" as="targetPoint" />
            <Array as="points">
              <mxPoint x="1140" y="385" />
              <mxPoint x="1140" y="428" />
            </Array>
          </mxGeometry>
        </mxCell>
        <mxCell id="Ab2P-R2S4FdKcfFSWCBW-136" style="edgeStyle=orthogonalEdgeStyle;rounded=0;orthogonalLoop=1;jettySize=auto;html=1;exitX=0.5;exitY=0.5;exitDx=0;exitDy=0;exitPerimeter=0;entryX=0;entryY=0.5;entryDx=0;entryDy=0;" edge="1" parent="1" source="Ab2P-R2S4FdKcfFSWCBW-139" target="Ab2P-R2S4FdKcfFSWCBW-144">
          <mxGeometry relative="1" as="geometry">
            <Array as="points">
              <mxPoint x="1005" y="390" />
              <mxPoint x="1097" y="390" />
              <mxPoint x="1097" y="515" />
            </Array>
          </mxGeometry>
        </mxCell>
        <mxCell id="Ab2P-R2S4FdKcfFSWCBW-137" style="edgeStyle=orthogonalEdgeStyle;rounded=0;orthogonalLoop=1;jettySize=auto;html=1;exitX=0.5;exitY=0.5;exitDx=0;exitDy=0;exitPerimeter=0;" edge="1" parent="1">
          <mxGeometry relative="1" as="geometry">
            <mxPoint x="1009" y="396.0000000000001" as="sourcePoint" />
            <mxPoint x="1161" y="604" as="targetPoint" />
            <Array as="points">
              <mxPoint x="1070" y="396" />
              <mxPoint x="1070" y="599" />
              <mxPoint x="1071" y="604" />
            </Array>
          </mxGeometry>
        </mxCell>
        <mxCell id="Ab2P-R2S4FdKcfFSWCBW-138" style="edgeStyle=orthogonalEdgeStyle;rounded=0;orthogonalLoop=1;jettySize=auto;html=1;exitX=0.5;exitY=0.5;exitDx=0;exitDy=0;exitPerimeter=0;" edge="1" parent="1">
          <mxGeometry relative="1" as="geometry">
            <mxPoint x="1014" y="402" as="sourcePoint" />
            <mxPoint x="1140" y="700" as="targetPoint" />
            <Array as="points">
              <mxPoint x="1049" y="402" />
              <mxPoint x="1049" y="700" />
            </Array>
          </mxGeometry>
        </mxCell>
        <mxCell id="Ab2P-R2S4FdKcfFSWCBW-139" value="" style="shape=umlActor;verticalLabelPosition=bottom;verticalAlign=top;html=1;outlineConnect=0;" vertex="1" parent="1">
          <mxGeometry x="990" y="350" width="30" height="60" as="geometry" />
        </mxCell>
        <mxCell id="Ab2P-R2S4FdKcfFSWCBW-140" value="Customer" style="text;html=1;align=center;verticalAlign=middle;resizable=0;points=[];autosize=1;strokeColor=none;fillColor=none;" vertex="1" parent="1">
          <mxGeometry x="965" y="408" width="80" height="30" as="geometry" />
        </mxCell>
        <mxCell id="Ab2P-R2S4FdKcfFSWCBW-141" value="Create Saving Account" style="ellipse;whiteSpace=wrap;html=1;" vertex="1" parent="1">
          <mxGeometry x="1174" y="210" width="140" height="70" as="geometry" />
        </mxCell>
        <mxCell id="Ab2P-R2S4FdKcfFSWCBW-142" value="Deposit Money" style="ellipse;whiteSpace=wrap;html=1;" vertex="1" parent="1">
          <mxGeometry x="1174" y="300" width="140" height="70" as="geometry" />
        </mxCell>
        <mxCell id="Ab2P-R2S4FdKcfFSWCBW-143" value="Withdraw Money" style="ellipse;whiteSpace=wrap;html=1;" vertex="1" parent="1">
          <mxGeometry x="1174" y="388" width="140" height="70" as="geometry" />
        </mxCell>
        <mxCell id="Ab2P-R2S4FdKcfFSWCBW-144" value="Check Balance" style="ellipse;whiteSpace=wrap;html=1;" vertex="1" parent="1">
          <mxGeometry x="1174" y="480" width="140" height="70" as="geometry" />
        </mxCell>
        <mxCell id="Ab2P-R2S4FdKcfFSWCBW-145" value="Transfer Money" style="ellipse;whiteSpace=wrap;html=1;" vertex="1" parent="1">
          <mxGeometry x="1174" y="570" width="140" height="70" as="geometry" />
        </mxCell>
        <mxCell id="Ab2P-R2S4FdKcfFSWCBW-146" value="Transaction Histroy" style="ellipse;whiteSpace=wrap;html=1;" vertex="1" parent="1">
          <mxGeometry x="1174" y="660" width="140" height="70" as="geometry" />
        </mxCell>
        <mxCell id="Ab2P-R2S4FdKcfFSWCBW-147" value="Bank System" style="shape=umlActor;verticalLabelPosition=bottom;verticalAlign=top;html=1;" vertex="1" parent="1">
          <mxGeometry x="1550" y="348" width="30" height="60" as="geometry" />
        </mxCell>
        <mxCell id="Ab2P-R2S4FdKcfFSWCBW-148" value="Update Balance" style="html=1;verticalAlign=bottom;endArrow=block;edgeStyle=elbowEdgeStyle;elbow=vertical;curved=0;rounded=0;exitX=0.5;exitY=0;exitDx=0;exitDy=0;exitPerimeter=0;" edge="1" parent="1" source="Ab2P-R2S4FdKcfFSWCBW-147">
          <mxGeometry width="80" relative="1" as="geometry">
            <mxPoint x="1530" y="380" as="sourcePoint" />
            <mxPoint x="1313.9960597293814" y="334.67" as="targetPoint" />
            <Array as="points">
              <mxPoint x="1450" y="335" />
            </Array>
          </mxGeometry>
        </mxCell>
        <mxCell id="Ab2P-R2S4FdKcfFSWCBW-149" value="Update Balance" style="html=1;verticalAlign=bottom;endArrow=block;edgeStyle=elbowEdgeStyle;elbow=horizontal;curved=0;rounded=0;entryX=1;entryY=0.5;entryDx=0;entryDy=0;exitX=0.5;exitY=0.5;exitDx=0;exitDy=0;exitPerimeter=0;" edge="1" parent="1">
          <mxGeometry width="80" relative="1" as="geometry">
            <mxPoint x="1566" y="378" as="sourcePoint" />
            <mxPoint x="1315" y="423" as="targetPoint" />
            <Array as="points">
              <mxPoint x="1401" y="380" />
            </Array>
          </mxGeometry>
        </mxCell>
        <mxCell id="Ab2P-R2S4FdKcfFSWCBW-150" value="Update Balance" style="html=1;verticalAlign=bottom;endArrow=block;edgeStyle=elbowEdgeStyle;elbow=vertical;curved=0;rounded=0;exitX=0.478;exitY=0.683;exitDx=0;exitDy=0;exitPerimeter=0;" edge="1" parent="1" source="Ab2P-R2S4FdKcfFSWCBW-147">
          <mxGeometry width="80" relative="1" as="geometry">
            <mxPoint x="1510" y="400" as="sourcePoint" />
            <mxPoint x="1314" y="605" as="targetPoint" />
            <Array as="points">
              <mxPoint x="1320" y="550" />
              <mxPoint x="1460" y="540" />
            </Array>
          </mxGeometry>
        </mxCell>
        <mxCell id="Ab2P-R2S4FdKcfFSWCBW-151" value="Approve or Reject" style="html=1;verticalAlign=bottom;endArrow=block;edgeStyle=elbowEdgeStyle;elbow=vertical;curved=0;rounded=0;exitX=0.744;exitY=0.306;exitDx=0;exitDy=0;exitPerimeter=0;" edge="1" parent="1">
          <mxGeometry width="80" relative="1" as="geometry">
            <mxPoint x="1575.3200000000002" y="366.36" as="sourcePoint" />
            <mxPoint x="1316.282032302755" y="240" as="targetPoint" />
            <Array as="points">
              <mxPoint x="1538" y="240" />
            </Array>
          </mxGeometry>
        </mxCell>
        <mxCell id="Ab2P-R2S4FdKcfFSWCBW-153" value="" style="rounded=1;whiteSpace=wrap;html=1;" vertex="1" parent="1">
          <mxGeometry x="1960" y="149" width="270" height="671" as="geometry" />
        </mxCell>
        <mxCell id="Ab2P-R2S4FdKcfFSWCBW-154" value="Banking System" style="text;strokeColor=none;align=center;fillColor=none;html=1;verticalAlign=middle;whiteSpace=wrap;rounded=0;" vertex="1" parent="1">
          <mxGeometry x="2045" y="159" width="100" height="10" as="geometry" />
        </mxCell>
        <mxCell id="Ab2P-R2S4FdKcfFSWCBW-155" value="&amp;lt;&amp;lt;Loan Account&amp;gt;&amp;gt;" style="text;strokeColor=none;align=center;fillColor=none;html=1;verticalAlign=middle;whiteSpace=wrap;rounded=0;" vertex="1" parent="1">
          <mxGeometry x="2024" y="163" width="140" height="30" as="geometry" />
        </mxCell>
        <mxCell id="Ab2P-R2S4FdKcfFSWCBW-156" style="edgeStyle=orthogonalEdgeStyle;rounded=0;orthogonalLoop=1;jettySize=auto;html=1;exitX=0.5;exitY=0.5;exitDx=0;exitDy=0;exitPerimeter=0;entryX=0;entryY=0.5;entryDx=0;entryDy=0;" edge="1" parent="1">
          <mxGeometry relative="1" as="geometry">
            <mxPoint x="1855" y="363.0000000000001" as="sourcePoint" />
            <mxPoint x="2024" y="228.0000000000001" as="targetPoint" />
            <Array as="points">
              <mxPoint x="1910" y="363" />
              <mxPoint x="1910" y="229" />
              <mxPoint x="2024" y="229" />
            </Array>
          </mxGeometry>
        </mxCell>
        <mxCell id="Ab2P-R2S4FdKcfFSWCBW-157" style="edgeStyle=orthogonalEdgeStyle;rounded=0;orthogonalLoop=1;jettySize=auto;html=1;exitX=0.5;exitY=0.5;exitDx=0;exitDy=0;exitPerimeter=0;" edge="1" parent="1">
          <mxGeometry relative="1" as="geometry">
            <mxPoint x="1855" y="369.0000000000001" as="sourcePoint" />
            <mxPoint x="2024" y="323.9999999999999" as="targetPoint" />
            <Array as="points">
              <mxPoint x="1990" y="370" />
              <mxPoint x="1990" y="324" />
            </Array>
          </mxGeometry>
        </mxCell>
        <mxCell id="Ab2P-R2S4FdKcfFSWCBW-158" style="edgeStyle=orthogonalEdgeStyle;rounded=0;orthogonalLoop=1;jettySize=auto;html=1;exitX=0.5;exitY=0.5;exitDx=0;exitDy=0;exitPerimeter=0;entryX=0;entryY=0.5;entryDx=0;entryDy=0;" edge="1" parent="1">
          <mxGeometry relative="1" as="geometry">
            <mxPoint x="1855" y="374.0000000000001" as="sourcePoint" />
            <mxPoint x="2024" y="417" as="targetPoint" />
            <Array as="points">
              <mxPoint x="1990" y="374" />
              <mxPoint x="1990" y="417" />
            </Array>
          </mxGeometry>
        </mxCell>
        <mxCell id="Ab2P-R2S4FdKcfFSWCBW-159" style="edgeStyle=orthogonalEdgeStyle;rounded=0;orthogonalLoop=1;jettySize=auto;html=1;exitX=0.5;exitY=0.5;exitDx=0;exitDy=0;exitPerimeter=0;entryX=0;entryY=0.5;entryDx=0;entryDy=0;" edge="1" parent="1" source="Ab2P-R2S4FdKcfFSWCBW-162" target="Ab2P-R2S4FdKcfFSWCBW-167">
          <mxGeometry relative="1" as="geometry">
            <Array as="points">
              <mxPoint x="1855" y="379" />
              <mxPoint x="1947" y="379" />
              <mxPoint x="1947" y="504" />
            </Array>
          </mxGeometry>
        </mxCell>
        <mxCell id="Ab2P-R2S4FdKcfFSWCBW-160" style="edgeStyle=orthogonalEdgeStyle;rounded=0;orthogonalLoop=1;jettySize=auto;html=1;exitX=0.5;exitY=0.5;exitDx=0;exitDy=0;exitPerimeter=0;" edge="1" parent="1">
          <mxGeometry relative="1" as="geometry">
            <mxPoint x="1859" y="385.0000000000001" as="sourcePoint" />
            <mxPoint x="2011" y="593" as="targetPoint" />
            <Array as="points">
              <mxPoint x="1920" y="385" />
              <mxPoint x="1920" y="588" />
              <mxPoint x="1921" y="593" />
            </Array>
          </mxGeometry>
        </mxCell>
        <mxCell id="Ab2P-R2S4FdKcfFSWCBW-161" style="edgeStyle=orthogonalEdgeStyle;rounded=0;orthogonalLoop=1;jettySize=auto;html=1;exitX=0.5;exitY=0.5;exitDx=0;exitDy=0;exitPerimeter=0;" edge="1" parent="1">
          <mxGeometry relative="1" as="geometry">
            <mxPoint x="1864" y="391" as="sourcePoint" />
            <mxPoint x="1990" y="689" as="targetPoint" />
            <Array as="points">
              <mxPoint x="1899" y="391" />
              <mxPoint x="1899" y="689" />
            </Array>
          </mxGeometry>
        </mxCell>
        <mxCell id="Ab2P-R2S4FdKcfFSWCBW-176" style="edgeStyle=orthogonalEdgeStyle;rounded=0;orthogonalLoop=1;jettySize=auto;html=1;exitX=1;exitY=1;exitDx=0;exitDy=0;exitPerimeter=0;" edge="1" parent="1">
          <mxGeometry relative="1" as="geometry">
            <mxPoint x="1864" y="394" as="sourcePoint" />
            <mxPoint x="2024" y="769" as="targetPoint" />
            <Array as="points">
              <mxPoint x="1864" y="769" />
              <mxPoint x="2024" y="769" />
            </Array>
          </mxGeometry>
        </mxCell>
        <mxCell id="Ab2P-R2S4FdKcfFSWCBW-162" value="" style="shape=umlActor;verticalLabelPosition=bottom;verticalAlign=top;html=1;outlineConnect=0;" vertex="1" parent="1">
          <mxGeometry x="1840" y="339" width="30" height="60" as="geometry" />
        </mxCell>
        <mxCell id="Ab2P-R2S4FdKcfFSWCBW-163" value="Customer" style="text;html=1;align=center;verticalAlign=middle;resizable=0;points=[];autosize=1;strokeColor=none;fillColor=none;" vertex="1" parent="1">
          <mxGeometry x="1815" y="397" width="80" height="30" as="geometry" />
        </mxCell>
        <mxCell id="Ab2P-R2S4FdKcfFSWCBW-164" value="Apply Loan" style="ellipse;whiteSpace=wrap;html=1;" vertex="1" parent="1">
          <mxGeometry x="2024" y="199" width="140" height="70" as="geometry" />
        </mxCell>
        <mxCell id="Ab2P-R2S4FdKcfFSWCBW-165" value="Check Status" style="ellipse;whiteSpace=wrap;html=1;" vertex="1" parent="1">
          <mxGeometry x="2024" y="289" width="140" height="70" as="geometry" />
        </mxCell>
        <mxCell id="Ab2P-R2S4FdKcfFSWCBW-166" value="Interest Rate" style="ellipse;whiteSpace=wrap;html=1;" vertex="1" parent="1">
          <mxGeometry x="2024" y="377" width="140" height="70" as="geometry" />
        </mxCell>
        <mxCell id="Ab2P-R2S4FdKcfFSWCBW-167" value="EMI" style="ellipse;whiteSpace=wrap;html=1;" vertex="1" parent="1">
          <mxGeometry x="2024" y="469" width="140" height="70" as="geometry" />
        </mxCell>
        <mxCell id="Ab2P-R2S4FdKcfFSWCBW-168" value="Transfer Histroy" style="ellipse;whiteSpace=wrap;html=1;" vertex="1" parent="1">
          <mxGeometry x="2024" y="559" width="140" height="70" as="geometry" />
        </mxCell>
        <mxCell id="Ab2P-R2S4FdKcfFSWCBW-169" value="Partial Payment" style="ellipse;whiteSpace=wrap;html=1;" vertex="1" parent="1">
          <mxGeometry x="2024" y="649" width="140" height="70" as="geometry" />
        </mxCell>
        <mxCell id="Ab2P-R2S4FdKcfFSWCBW-170" value="Bank System" style="shape=umlActor;verticalLabelPosition=bottom;verticalAlign=top;html=1;" vertex="1" parent="1">
          <mxGeometry x="2400" y="337" width="30" height="60" as="geometry" />
        </mxCell>
        <mxCell id="Ab2P-R2S4FdKcfFSWCBW-171" value="Update Status" style="html=1;verticalAlign=bottom;endArrow=block;edgeStyle=elbowEdgeStyle;elbow=vertical;curved=0;rounded=0;exitX=0.5;exitY=0;exitDx=0;exitDy=0;exitPerimeter=0;" edge="1" parent="1" source="Ab2P-R2S4FdKcfFSWCBW-170">
          <mxGeometry width="80" relative="1" as="geometry">
            <mxPoint x="2380" y="369" as="sourcePoint" />
            <mxPoint x="2163.9960597293816" y="323.67" as="targetPoint" />
            <Array as="points">
              <mxPoint x="2300" y="324" />
            </Array>
          </mxGeometry>
        </mxCell>
        <mxCell id="Ab2P-R2S4FdKcfFSWCBW-172" value="Update Interest" style="html=1;verticalAlign=bottom;endArrow=block;edgeStyle=elbowEdgeStyle;elbow=horizontal;curved=0;rounded=0;entryX=1;entryY=0.5;entryDx=0;entryDy=0;exitX=0.5;exitY=0.5;exitDx=0;exitDy=0;exitPerimeter=0;" edge="1" parent="1">
          <mxGeometry width="80" relative="1" as="geometry">
            <mxPoint x="2416" y="367" as="sourcePoint" />
            <mxPoint x="2165" y="412" as="targetPoint" />
            <Array as="points">
              <mxPoint x="2251" y="369" />
            </Array>
          </mxGeometry>
        </mxCell>
        <mxCell id="Ab2P-R2S4FdKcfFSWCBW-173" value="Update Payment" style="html=1;verticalAlign=bottom;endArrow=block;edgeStyle=elbowEdgeStyle;elbow=vertical;curved=0;rounded=0;exitX=0.478;exitY=0.683;exitDx=0;exitDy=0;exitPerimeter=0;" edge="1" parent="1" source="Ab2P-R2S4FdKcfFSWCBW-170">
          <mxGeometry width="80" relative="1" as="geometry">
            <mxPoint x="2360" y="389" as="sourcePoint" />
            <mxPoint x="2164" y="679" as="targetPoint" />
            <Array as="points">
              <mxPoint x="2310" y="679" />
              <mxPoint x="2310" y="529" />
            </Array>
          </mxGeometry>
        </mxCell>
        <mxCell id="Ab2P-R2S4FdKcfFSWCBW-174" value="Approve or Reject" style="html=1;verticalAlign=bottom;endArrow=block;edgeStyle=elbowEdgeStyle;elbow=vertical;curved=0;rounded=0;exitX=0.744;exitY=0.306;exitDx=0;exitDy=0;exitPerimeter=0;" edge="1" parent="1">
          <mxGeometry width="80" relative="1" as="geometry">
            <mxPoint x="2425.32" y="355.36" as="sourcePoint" />
            <mxPoint x="2166.282032302755" y="229" as="targetPoint" />
            <Array as="points">
              <mxPoint x="2388" y="229" />
            </Array>
          </mxGeometry>
        </mxCell>
        <mxCell id="Ab2P-R2S4FdKcfFSWCBW-175" value="Close Loan" style="ellipse;whiteSpace=wrap;html=1;" vertex="1" parent="1">
          <mxGeometry x="2025" y="739" width="140" height="70" as="geometry" />
        </mxCell>
        <mxCell id="Ab2P-R2S4FdKcfFSWCBW-178" value="Update Status" style="html=1;verticalAlign=bottom;endArrow=block;edgeStyle=elbowEdgeStyle;elbow=vertical;curved=0;rounded=0;entryX=1;entryY=0.5;entryDx=0;entryDy=0;" edge="1" parent="1" target="Ab2P-R2S4FdKcfFSWCBW-175">
          <mxGeometry x="0.0314" y="-20" width="80" relative="1" as="geometry">
            <mxPoint x="2460" y="369" as="sourcePoint" />
            <mxPoint x="2510" y="709" as="targetPoint" />
            <Array as="points">
              <mxPoint x="2330" y="774" />
            </Array>
            <mxPoint y="-1" as="offset" />
          </mxGeometry>
        </mxCell>
        <mxCell id="Ab2P-R2S4FdKcfFSWCBW-180" value="" style="line;strokeWidth=1;fillColor=none;align=left;verticalAlign=middle;spacingTop=-1;spacingLeft=3;spacingRight=3;rotatable=0;labelPosition=right;points=[];portConstraint=eastwest;strokeColor=inherit;" vertex="1" parent="1">
          <mxGeometry x="2411" y="363" width="50" height="8" as="geometry" />
        </mxCell>
      </root>
    </mxGraphModel>
  </diagram>
</mxfile>
